<?xml version="1.0" standalone="no"?>
<!DOCTYPE svg PUBLIC "-//W3C//DTD SVG 20010904//EN"
 "http://www.w3.org/TR/2001/REC-SVG-20010904/DTD/svg10.dtd">
<svg version="1.0" xmlns="http://www.w3.org/2000/svg"
 width="512.000000pt" height="512.000000pt" viewBox="0 0 512.000000 512.000000"
 preserveAspectRatio="xMidYMid meet">

<g transform="translate(0.000000,512.000000) scale(0.100000,-0.100000)"
fill="#000000" stroke="none">
<path d="M2050 5105 c-361 -59 -665 -283 -828 -610 -164 -330 -140 -762 60
-1072 l45 -69 -43 -47 c-58 -64 -84 -137 -84 -236 0 -206 107 -419 245 -486
52 -26 55 -30 76 -93 85 -258 242 -474 462 -635 l67 -49 0 -139 0 -139 -197 0
c-251 0 -388 -21 -558 -85 -497 -188 -845 -611 -931 -1135 -14 -88 -19 -236
-8 -265 18 -47 -84 -45 2212 -45 2138 0 2149 0 2175 20 35 27 39 58 28 182
-55 580 -405 1037 -950 1244 -160 61 -255 76 -521 83 l-225 6 -3 136 -3 136
63 43 c176 124 329 311 421 515 33 74 87 241 87 270 0 7 24 27 54 43 134 76
227 272 229 486 1 72 -3 101 -20 137 -27 61 -82 120 -138 150 -25 13 -45 27
-45 30 0 4 18 29 40 55 99 120 160 301 161 474 1 293 -160 553 -422 683 -114
56 -218 78 -356 76 l-115 -1 -46 45 c-138 132 -323 232 -521 278 -113 26 -299
33 -411 14z m419 -194 c162 -47 285 -120 419 -246 l81 -76 123 7 c152 8 216
-3 327 -56 151 -73 273 -222 316 -387 41 -158 -1 -374 -96 -494 l-31 -40 -35
51 c-103 154 -489 493 -577 507 -30 5 -51 -9 -242 -153 -115 -87 -240 -182
-279 -211 -118 -89 -282 -166 -422 -199 -36 -8 -131 -21 -212 -28 -114 -11
-157 -19 -192 -36 -59 -30 -112 -73 -129 -104 -7 -14 -17 -26 -21 -26 -12 0
-76 95 -112 167 -70 139 -99 264 -99 426 0 439 305 814 742 912 99 22 342 14
439 -14z m646 -1020 c199 -161 288 -259 360 -400 l25 -50 0 -312 c0 -349 -11
-452 -62 -599 -129 -368 -440 -647 -810 -725 -60 -13 -76 -13 -133 0 -214 50
-391 149 -545 304 -161 161 -259 346 -305 571 -21 101 -32 538 -16 598 14 49
59 105 98 120 16 6 87 15 158 21 208 17 405 77 567 173 37 22 170 118 295 213
125 96 235 174 243 174 8 0 65 -39 125 -88z m608 -618 c51 -58 29 -281 -38
-369 -13 -17 -14 5 -15 194 0 200 1 212 18 203 9 -5 25 -18 35 -28z m-2271
-260 c2 -115 3 -209 2 -211 -4 -8 -44 68 -59 113 -19 55 -31 179 -21 218 6 27
52 87 66 87 5 0 10 -93 12 -207z m849 -1327 c35 -13 108 -34 161 -46 l97 -22
93 20 c52 12 126 32 165 47 39 14 73 25 77 25 3 0 6 -72 6 -160 l0 -161 -105
-139 -106 -140 -128 0 -129 0 -106 142 -106 142 0 158 c0 87 4 158 9 158 5 0
37 -11 72 -24z"/>
</g>
</svg>
